<svg version="1.1" xmlns="http://www.w3.org/2000/svg" xmlns:xlink="http://www.w3.org/1999/xlink" width="152.03243" height="97.5976" viewBox="0,0,152.03243,97.5976"><g transform="translate(-1056.29249,5.34534)"><g data-paper-data="{&quot;isPaintingLayer&quot;:true}" fill-rule="nonzero" stroke="none" stroke-linejoin="miter" stroke-miterlimit="10" stroke-dasharray="" stroke-dashoffset="0" style="mix-blend-mode: normal"><path d="M1056.29249,92.25226v-97.5976h152.03243v97.5976z" fill="#4588e5" stroke-width="0" stroke-linecap="butt"/><path d="M1098.81942,37.06677v12.71216c0,1.45734 0.33266,2.53451 0.99797,3.2315c0.68114,0.68115 1.74248,1.02173 3.18398,1.02173c1.55239,0 2.63748,-0.33266 3.25527,-0.99797c0.63362,-0.68115 0.95044,-1.76624 0.95044,-3.25525v-12.71214h4.44331v12.71215c0,2.51868 -0.73658,4.48293 -2.20977,5.89274c-1.45736,1.40982 -3.60375,2.11473 -6.43923,2.11473c-2.85132,0 -5.00565,-0.68906 -6.46301,-2.0672c-1.44149,-1.39399 -2.16224,-3.37406 -2.16224,-5.94026v-12.71214zM1121.08365,42.24668c1.99593,0 3.53246,0.39602 4.60964,1.18805c1.09301,0.79203 1.71079,1.95632 1.85336,3.49288h-3.82551c-0.06336,-0.69699 -0.32473,-1.2039 -0.7841,-1.5207c-0.45939,-0.31681 -1.12469,-0.47523 -1.99593,-0.47523c-0.76035,0 -1.3227,0.11882 -1.68703,0.35643c-0.34848,0.23761 -0.52274,0.57819 -0.52274,1.02173c0,0.44354 0.22969,0.8158 0.68908,1.11677c0.47522,0.28513 1.41774,0.56234 2.82758,0.83164c2.24937,0.4277 3.75424,0.98212 4.51459,1.66328c0.77618,0.68115 1.16431,1.57615 1.16431,2.685c0,1.66327 -0.60986,2.93053 -1.82959,3.80177c-1.20388,0.87124 -2.81963,1.30687 -4.84725,1.30687c-2.04345,0 -3.68295,-0.42769 -4.91853,-1.28309c-1.23557,-0.87124 -1.90088,-2.17017 -1.99593,-3.89681h3.84929c0,0.7762 0.29305,1.38606 0.87917,1.82961c0.58609,0.4277 1.3227,0.64156 2.20978,0.64156c0.77618,0 1.40983,-0.16632 1.90088,-0.49897c0.49105,-0.33266 0.7366,-0.78411 0.7366,-1.35437c0,-0.52275 -0.31683,-0.94252 -0.95045,-1.25933c-0.63362,-0.31681 -1.79791,-0.65738 -3.49286,-1.02172c-1.69496,-0.33266 -2.91467,-0.80787 -3.6592,-1.42566c-0.74453,-0.61778 -1.11676,-1.44942 -1.11676,-2.4949c0,-1.55238 0.54651,-2.7246 1.63952,-3.51663c1.10884,-0.79203 2.69292,-1.18805 4.75221,-1.18805zM1137.08216,42.24668c2.17018,0 3.90474,0.75243 5.20367,2.2573c1.29893,1.48902 1.94841,3.38992 1.94841,5.70265l-0.04752,0.7366h-10.57365c0.06336,1.26725 0.396,2.20978 0.99796,2.82757c0.60196,0.60193 1.46527,0.90292 2.58996,0.90292c0.72866,0 1.40191,-0.18217 2.0197,-0.5465c0.61778,-0.38018 1.0138,-0.83163 1.18805,-1.35437h3.5404c-0.53858,1.66327 -1.37814,2.90677 -2.51868,3.73049c-1.14053,0.80787 -2.58994,1.21182 -4.34826,1.21182c-2.26523,0 -4.08689,-0.71283 -5.46503,-2.13849c-1.36231,-1.4415 -2.04345,-3.30278 -2.04345,-5.58383c0,-2.18601 0.697,-4.02354 2.09097,-5.51256c1.40983,-1.48902 3.21567,-2.23353 5.41752,-2.23353zM1133.61306,48.40079h6.55804c-0.19008,-1.07716 -0.53858,-1.86128 -1.04549,-2.35234c-0.50691,-0.5069 -1.23557,-0.76035 -2.18601,-0.76035c-0.98213,0 -1.75831,0.27721 -2.32858,0.83165c-0.57027,0.55441 -0.90292,1.31477 -0.99797,2.28105zM1155.13145,42.24668c0.19008,0 0.35642,0.01584 0.49899,0.04752c0.14257,0.01585 0.27721,0.04753 0.40394,0.09505v3.75424c-0.22178,-0.04752 -0.44353,-0.07921 -0.6653,-0.09504c-0.22178,-0.03167 -0.47522,-0.04752 -0.76035,-0.04752c-1.36231,0 -2.36818,0.41977 -3.01765,1.25934c-0.64947,0.82372 -0.97419,1.93256 -0.97419,3.32655v6.72438h-4.01561v-14.66054h3.82553v2.70876h0.04752c0.4277,-0.95045 1.06132,-1.70287 1.90088,-2.25729c0.83957,-0.57026 1.75832,-0.8554 2.75628,-0.8554zM1163.65351,42.24668c1.99593,0 3.53247,0.39602 4.60964,1.18805c1.09301,0.79203 1.71079,1.95632 1.85336,3.49288h-3.82551c-0.06336,-0.69699 -0.32473,-1.2039 -0.78411,-1.5207c-0.45939,-0.31681 -1.12469,-0.47523 -1.99593,-0.47523c-0.76035,0 -1.3227,0.11882 -1.68703,0.35643c-0.34848,0.23761 -0.52274,0.57819 -0.52274,1.02173c0,0.44354 0.22969,0.8158 0.68908,1.11677c0.47522,0.28513 1.41774,0.56234 2.82758,0.83164c2.24937,0.4277 3.75424,0.98212 4.51459,1.66328c0.77618,0.68115 1.1643,1.57615 1.1643,2.685c0,1.66327 -0.60987,2.93053 -1.8296,3.80177c-1.20388,0.87124 -2.81963,1.30687 -4.84725,1.30687c-2.04345,0 -3.68295,-0.42769 -4.91852,-1.28309c-1.23557,-0.87124 -1.90088,-2.17017 -1.99593,-3.89681h3.84929c0,0.7762 0.29305,1.38606 0.87917,1.82961c0.58609,0.4277 1.3227,0.64156 2.20978,0.64156c0.77618,0 1.40983,-0.16632 1.90088,-0.49897c0.49105,-0.33266 0.7366,-0.78411 0.7366,-1.35437c0,-0.52275 -0.31682,-0.94252 -0.95044,-1.25933c-0.63362,-0.31681 -1.79791,-0.65738 -3.49286,-1.02172c-1.69496,-0.33266 -2.91468,-0.80787 -3.6592,-1.42566c-0.74453,-0.61778 -1.11676,-1.44942 -1.11676,-2.4949c0,-1.55238 0.54651,-2.7246 1.63952,-3.51663c1.10884,-0.79203 2.69292,-1.18805 4.75221,-1.18805z" fill="#ffffff" stroke-width="1" stroke-linecap="square"/></g></g></svg>