<svg version="1.1" xmlns="http://www.w3.org/2000/svg" xmlns:xlink="http://www.w3.org/1999/xlink" width="152.03243" height="97.5976" viewBox="0,0,152.03243,97.5976"><g transform="translate(-1056.29249,5.34534)"><g data-paper-data="{&quot;isPaintingLayer&quot;:true}" fill-rule="nonzero" stroke="none" stroke-linejoin="miter" stroke-miterlimit="10" stroke-dasharray="" stroke-dashoffset="0" style="mix-blend-mode: normal"><path d="M1056.29249,92.25226v-97.5976h152.03243v97.5976z" fill="#4d97ff" stroke-width="0" stroke-linecap="butt"/><path d="M1091.72759,37.23102v12.65994c0,1.45135 0.33129,2.5241 0.99386,3.21823c0.67835,0.67835 1.73532,1.01753 3.1709,1.01753c1.54601,0 2.62664,-0.33129 3.24189,-0.99386c0.63103,-0.67835 0.94654,-1.75898 0.94654,-3.24189v-12.65992h4.42506v12.65994c0,2.50832 -0.73356,4.4645 -2.20069,5.86853c-1.45135,1.40403 -3.58895,2.10605 -6.41278,2.10605c-2.83961,0 -4.9851,-0.68623 -6.43645,-2.05871c-1.43559,-1.38826 -2.15336,-3.36021 -2.15336,-5.91585v-12.65992zM1116.12472,42.38964c2.0666,0 3.69149,0.72569 4.87466,2.17704c1.18317,1.45135 1.77476,3.34443 1.77476,5.67922c0,2.16126 -0.5837,3.95968 -1.7511,5.39526c-1.15163,1.43559 -2.70552,2.15338 -4.66169,2.15338c-0.89921,0 -1.73532,-0.18931 -2.50832,-0.56792c-0.77301,-0.37862 -1.39613,-0.92286 -1.86941,-1.63277h-0.07098v6.93339h-3.99911v-19.73529h3.80982v1.84575h0.04732c0.47327,-0.75723 1.08063,-1.31726 1.82209,-1.6801c0.74145,-0.37862 1.58545,-0.56792 2.53199,-0.56792zM1111.77065,50.12759c0,1.40403 0.29974,2.53199 0.89921,3.38388c0.59947,0.8361 1.46713,1.25417 2.60298,1.25417c1.12007,0 1.97983,-0.40228 2.57932,-1.20683c0.59947,-0.80456 0.89921,-1.94829 0.89921,-3.43119c0,-1.38826 -0.29974,-2.51621 -0.89921,-3.38386c-0.59947,-0.88343 -1.47502,-1.32516 -2.62663,-1.32516c-1.10429,0 -1.95619,0.41806 -2.55565,1.25417c-0.59947,0.82034 -0.89921,1.97195 -0.89921,3.45486zM1129.28968,37.23102v20.16123h-4.02278v-20.16123zM1139.53188,42.38964c2.30323,0 4.14111,0.7099 5.51359,2.12971c1.37248,1.40403 2.05873,3.26555 2.05873,5.58457c0,2.33479 -0.69412,4.2042 -2.08238,5.60824c-1.38826,1.38826 -3.21823,2.08238 -5.48991,2.08238c-2.25591,0 -4.078,-0.70201 -5.46625,-2.10604c-1.38826,-1.40403 -2.08238,-3.26555 -2.08238,-5.58457c0,-2.30323 0.67835,-4.16477 2.03505,-5.58457c1.37248,-1.41981 3.21033,-2.12971 5.51359,-2.12971zM1136.00604,50.10392c0,1.54601 0.31551,2.71341 0.94654,3.50218c0.63103,0.77301 1.49081,1.15951 2.57932,1.15951c1.15163,0 2.03505,-0.40228 2.6503,-1.20683c0.61525,-0.82034 0.92288,-1.97195 0.92288,-3.45486c0,-1.45135 -0.29974,-2.59508 -0.89921,-3.43119c-0.59947,-0.8361 -1.49867,-1.25416 -2.69763,-1.25416c-1.07273,0 -1.92462,0.3865 -2.55565,1.15951c-0.63103,0.77301 -0.94654,1.94829 -0.94654,3.52586zM1156.41201,42.38964c2.16126,0 3.77037,0.35496 4.82734,1.06486c1.05697,0.7099 1.58545,1.71166 1.58545,3.00526v7.8326c0,0.5837 0.03154,1.17528 0.09465,1.77476c0.07887,0.5837 0.21298,1.02541 0.40228,1.32516h-4.07011c-0.07887,-0.22085 -0.14198,-0.4496 -0.18931,-0.68623c-0.04732,-0.23663 -0.07887,-0.47327 -0.09465,-0.7099c-0.56792,0.5837 -1.26994,1.0333 -2.10604,1.34882c-0.82034,0.29974 -1.75898,0.44962 -2.81594,0.44962c-1.49867,0 -2.70552,-0.37862 -3.62049,-1.13585c-0.89921,-0.75723 -1.34881,-1.83786 -1.34881,-3.24189c0,-1.37248 0.42594,-2.41367 1.27782,-3.12357c0.85188,-0.72569 2.39001,-1.21472 4.61437,-1.46713c1.56179,-0.14198 2.5872,-0.33129 3.07624,-0.56792c0.50482,-0.23663 0.75723,-0.64679 0.75723,-1.2305c0,-0.64679 -0.18931,-1.13585 -0.56792,-1.46713c-0.37862,-0.33129 -1.04908,-0.49692 -2.01138,-0.49692c-0.8361,0 -1.47502,0.18141 -1.91673,0.54427c-0.44172,0.34707 -0.69412,0.9071 -0.75723,1.68011h-4.02278c0.11044,-1.60911 0.76512,-2.82383 1.96407,-3.64417c1.21472,-0.8361 2.85539,-1.25416 4.92199,-1.25416zM1153.09913,53.25116c0,0.56792 0.19719,1.01753 0.59159,1.34882c0.3944,0.33129 1.01753,0.49694 1.86942,0.49694c1.07273,0 1.87729,-0.27607 2.41367,-0.82822c0.55214,-0.56792 0.82823,-1.38826 0.82823,-2.46099v-1.56179c-0.23663,0.18931 -0.55214,0.33129 -0.94654,0.42594c-0.3944,0.09465 -1.10429,0.22085 -2.12971,0.37862c-0.89921,0.11044 -1.56179,0.34707 -1.98773,0.7099c-0.42594,0.34707 -0.63891,0.844 -0.63891,1.49081zM1180.16103,37.23102v20.16123h-3.8098v-1.86941h-0.04732c-0.44172,0.75723 -1.04119,1.32516 -1.79842,1.70376c-0.75723,0.37862 -1.64066,0.56792 -2.6503,0.56792c-1.98773,0 -3.58106,-0.73356 -4.78002,-2.20069c-1.18317,-1.46713 -1.77475,-3.34443 -1.77475,-5.6319c0,-2.17704 0.5837,-3.98334 1.7511,-5.41891c1.18317,-1.43559 2.76074,-2.15336 4.73268,-2.15336c0.91499,0 1.7432,0.18931 2.48467,0.56792c0.75723,0.36284 1.36459,0.89921 1.82209,1.60911h0.071v-7.33566zM1169.32319,50.05659c0,1.37248 0.31551,2.50043 0.94654,3.38388c0.63103,0.88343 1.49081,1.32516 2.57932,1.32516c1.10429,0 1.95619,-0.41016 2.55565,-1.2305c0.59947,-0.82034 0.89921,-1.97983 0.89921,-3.47852c0,-1.43559 -0.29185,-2.56354 -0.87554,-3.38386c-0.5837,-0.8361 -1.45135,-1.25416 -2.60298,-1.25416c-1.10429,0 -1.96405,0.41806 -2.5793,1.25417c-0.61525,0.82034 -0.92286,1.94829 -0.92286,3.38388z" fill="#ffffff" stroke-width="1" stroke-linecap="square"/></g></g></svg>