<svg version="1.1" xmlns="http://www.w3.org/2000/svg" xmlns:xlink="http://www.w3.org/1999/xlink" width="152.03243" height="97.5976" viewBox="0,0,152.03243,97.5976"><g transform="translate(-1056.29249,5.34534)"><g data-paper-data="{&quot;isPaintingLayer&quot;:true}" fill-rule="nonzero" stroke="none" stroke-linejoin="miter" stroke-miterlimit="10" stroke-dasharray="" stroke-dashoffset="0" style="mix-blend-mode: normal"><path d="M1056.29249,92.25226v-97.5976h152.03243v97.5976z" fill="#4d97ff" stroke-width="0" stroke-linecap="butt"/><path d="M1095.13814,37.44813c2.0124,0 3.54491,0.40247 4.59754,1.20744c1.05263,0.78948 1.57895,2.0124 1.57895,3.66875c0,1.02168 -0.23994,1.86534 -0.71981,2.53098c-0.4644,0.66564 -1.1223,1.20744 -1.97369,1.62539c1.20744,0.35603 2.11302,0.96749 2.71674,1.83438c0.60372,0.8514 0.90558,1.91178 0.90558,3.18114c0,1.82664 -0.6579,3.24305 -1.97369,4.24925c-1.3158,0.99072 -2.94119,1.48607 -4.87618,1.48607h-9.72914v-19.78337zM1094.51121,45.45901c0.77399,0 1.3932,-0.20124 1.85759,-0.60372c0.47988,-0.40247 0.71982,-0.99072 0.71982,-1.76471c0,-0.77399 -0.24768,-1.34676 -0.74304,-1.71827c-0.47988,-0.37152 -1.19195,-0.55728 -2.13623,-0.55728h-4.17959v4.64398zM1094.78985,53.84139c0.97524,0 1.73376,-0.20897 2.27555,-0.62693c0.55728,-0.43344 0.83592,-1.09133 0.83592,-1.97369c0,-0.9288 -0.26315,-1.63314 -0.78948,-2.11301c-0.51084,-0.47988 -1.26162,-0.71981 -2.25232,-0.71981h-4.82974v5.43346zM1113.12656,42.51007c0.18576,0 0.34831,0.01548 0.48763,0.04644c0.13932,0.01548 0.2709,0.04644 0.39475,0.09288v3.66875c-0.21671,-0.04644 -0.43344,-0.07739 -0.65016,-0.09288c-0.21671,-0.03095 -0.4644,-0.04644 -0.74304,-0.04644c-1.33127,0 -2.31425,0.41022 -2.94892,1.23066c-0.63467,0.80496 -0.95201,1.88855 -0.95201,3.25079v6.57124h-3.92416v-14.32668h3.73841v2.64707h0.04644c0.41796,-0.9288 1.03716,-1.66409 1.85759,-2.20588c0.82043,-0.55728 1.71827,-0.83592 2.69351,-0.83592zM1122.30595,42.51007c2.26007,0 4.06349,0.6966 5.41025,2.08979c1.34676,1.37771 2.02014,3.20435 2.02014,5.4799c0,2.29104 -0.68111,4.1254 -2.04335,5.50313c-1.36224,1.36224 -3.15791,2.04335 -5.38702,2.04335c-2.21363,0 -4.00157,-0.68886 -5.36379,-2.06657c-1.36224,-1.37771 -2.04335,-3.20435 -2.04335,-5.4799c0,-2.26007 0.66564,-4.08671 1.99691,-5.4799c1.34676,-1.3932 3.15017,-2.08979 5.41025,-2.08979zM1118.84618,50.07976c0,1.51703 0.30959,2.66256 0.9288,3.43655c0.6192,0.75852 1.46286,1.13778 2.53098,1.13778c1.13004,0 1.99691,-0.39473 2.60063,-1.18421c0.60372,-0.80496 0.90558,-1.93499 0.90558,-3.39011c0,-1.42415 -0.29412,-2.54645 -0.88236,-3.36688c-0.58823,-0.82043 -1.47059,-1.23065 -2.64707,-1.23065c-1.05263,0 -1.88855,0.37926 -2.50775,1.13778c-0.6192,0.75852 -0.9288,1.91178 -0.9288,3.45978zM1135.10808,42.90481l2.64707,9.72915h0.04644l2.39166,-9.72914h3.83129l2.4381,9.70593h0.04644l2.64707,-9.70593h4.04027l-4.52788,14.3267h-4.04027l-2.55419,-9.63626h-0.06965l-2.43808,9.63627h-4.06348l-4.5511,-14.32668zM1160.73994,42.51007c1.95047,0 3.45203,0.387 4.50466,1.161c1.06812,0.77399 1.67183,1.91178 1.81115,3.41334h-3.7384c-0.06192,-0.68111 -0.31734,-1.17648 -0.76625,-1.48607c-0.44891,-0.30959 -1.09907,-0.4644 -1.95047,-0.4644c-0.74304,0 -1.29257,0.11611 -1.64861,0.34831c-0.34056,0.2322 -0.51084,0.56502 -0.51084,0.99846c0,0.43344 0.22446,0.79722 0.67339,1.09134c0.4644,0.27864 1.38545,0.54954 2.76318,0.8127c2.19816,0.41796 3.66875,0.95975 4.41178,1.62539c0.75852,0.66564 1.13778,1.54026 1.13778,2.62386c0,1.62539 -0.59598,2.86378 -1.78793,3.71519c-1.17648,0.8514 -2.75544,1.2771 -4.73686,1.2771c-1.99691,0 -3.59908,-0.41796 -4.80652,-1.25388c-1.20744,-0.8514 -1.85759,-2.12075 -1.95047,-3.80807h3.76163c0,0.75852 0.28638,1.3545 0.85914,1.78794c0.57276,0.41796 1.29257,0.62695 2.15946,0.62695c0.75852,0 1.37771,-0.16253 1.85759,-0.48761c0.47988,-0.32508 0.71982,-0.76625 0.71982,-1.32353c0,-0.51084 -0.30959,-0.92105 -0.9288,-1.23065c-0.6192,-0.30959 -1.75697,-0.64242 -3.41332,-0.99845c-1.65635,-0.32508 -2.84831,-0.78948 -3.57587,-1.3932c-0.72755,-0.60372 -1.09133,-1.41641 -1.09133,-2.43808c0,-1.51703 0.53407,-2.66256 1.60218,-3.43655c1.0836,-0.77399 2.63159,-1.161 4.64398,-1.161zM1176.37412,42.51007c2.12075,0 3.81581,0.73529 5.08517,2.2059c1.26936,1.45512 1.90403,3.31271 1.90403,5.57278l-0.04644,0.71982h-10.33286c0.06192,1.23839 0.387,2.15946 0.97524,2.76318c0.58823,0.58823 1.43189,0.88236 2.53098,0.88236c0.71208,0 1.36998,-0.17802 1.9737,-0.53405c0.60372,-0.37152 0.99072,-0.81269 1.161,-1.32353h3.45978c-0.52632,1.62539 -1.34676,2.84057 -2.46131,3.64553c-1.11456,0.78948 -2.53096,1.18422 -4.24924,1.18422c-2.21363,0 -3.99383,-0.6966 -5.34058,-2.08979c-1.33127,-1.40868 -1.99691,-3.22756 -1.99691,-5.45667c0,-2.13623 0.68111,-3.9319 2.04335,-5.38702c1.37771,-1.45512 3.14242,-2.18267 5.29414,-2.18267zM1172.98401,48.52403h6.4087c-0.18576,-1.05263 -0.52632,-1.8189 -1.02168,-2.29876c-0.49535,-0.49535 -1.20744,-0.74304 -2.13623,-0.74304c-0.95975,0 -1.71827,0.2709 -2.27555,0.8127c-0.55728,0.54179 -0.88236,1.28483 -0.97524,2.22911z" fill="#ffffff" stroke-width="1" stroke-linecap="square"/></g></g></svg>